<?xml version="1.0" encoding="UTF-8" standalone="no"?>
<svg
   xmlns:dc="http://purl.org/dc/elements/1.1/"
   xmlns:cc="http://creativecommons.org/ns#"
   xmlns:rdf="http://www.w3.org/1999/02/22-rdf-syntax-ns#"
   xmlns:svg="http://www.w3.org/2000/svg"
   xmlns="http://www.w3.org/2000/svg"
   id="svg7711"
   version="1.1"
   viewBox="0 0 18.873611 18.873611"
   height="18.873611mm"
   width="18.873611mm">
  <defs
     id="defs7705" />
  <metadata
     id="metadata7708">
    <rdf:RDF>
      <cc:Work
         rdf:about="">
        <dc:format>image/svg+xml</dc:format>
        <dc:type
           rdf:resource="http://purl.org/dc/dcmitype/StillImage" />
        <dc:title></dc:title>
      </cc:Work>
    </rdf:RDF>
  </metadata>
  <g
     transform="translate(-102.06617,-136.37272)"
     id="layer1">
    <g
       transform="matrix(0.35277777,0,0,-0.35277777,120.587,147.38926)"
       id="g4641">
      <path
         id="path4643"
         style="fill:none;stroke:#7ad4ff;stroke-width:2;stroke-linecap:butt;stroke-linejoin:miter;stroke-miterlimit:10;stroke-dasharray:none;stroke-opacity:1"
         d="m 0,0 v 8.956 h -7.269 c -0.47,1.942 -1.234,3.764 -2.248,5.422 l 5.142,5.142 -6.333,6.333 -5.143,-5.142 c -1.658,1.013 -3.479,1.779 -5.421,2.248 v 7.269 h -8.956 v -7.269 c -1.942,-0.469 -3.763,-1.235 -5.421,-2.248 l -5.143,5.142 -6.333,-6.333 5.142,-5.142 c -1.014,-1.658 -1.778,-3.48 -2.248,-5.422 H -51.5 V 0 h 7.269 c 0.47,-1.942 1.234,-3.763 2.248,-5.421 l -5.142,-5.142 6.333,-6.333 5.143,5.142 c 1.658,-1.014 3.479,-1.779 5.421,-2.248 v -7.27 h 8.956 v 7.27 c 1.942,0.469 3.763,1.234 5.421,2.248 l 5.143,-5.142 6.333,6.333 -5.142,5.142 c 1.014,1.658 1.778,3.479 2.248,5.421 z" />
    </g>
    <g
       transform="matrix(0.35277777,0,0,-0.35277777,113.87267,145.80945)"
       id="g4645">
      <path
         id="path4647"
         style="fill:none;stroke:#7ad4ff;stroke-width:2;stroke-linecap:butt;stroke-linejoin:miter;stroke-miterlimit:10;stroke-dasharray:none;stroke-opacity:1"
         d="m 0,0 c 0,-3.71 -3.007,-6.717 -6.717,-6.717 -3.71,0 -6.718,3.007 -6.718,6.717 0,3.71 3.008,6.717 6.718,6.717 C -3.007,6.717 0,3.71 0,0 Z" />
    </g>
  </g>
</svg>
