<?xml version="1.0" encoding="UTF-8" standalone="no"?>
<svg
   xmlns:dc="http://purl.org/dc/elements/1.1/"
   xmlns:cc="http://creativecommons.org/ns#"
   xmlns:rdf="http://www.w3.org/1999/02/22-rdf-syntax-ns#"
   xmlns:svg="http://www.w3.org/2000/svg"
   xmlns="http://www.w3.org/2000/svg"
   id="svg5314"
   version="1.1"
   viewBox="0 0 25.752958 16.227848"
   height="16.227848mm"
   width="25.752958mm">
  <defs
     id="defs5308" />
  <metadata
     id="metadata5311">
    <rdf:RDF>
      <cc:Work
         rdf:about="">
        <dc:format>image/svg+xml</dc:format>
        <dc:type
           rdf:resource="http://purl.org/dc/dcmitype/StillImage" />
        <dc:title></dc:title>
      </cc:Work>
    </rdf:RDF>
  </metadata>
  <g
     transform="translate(-87.665189,-144.49917)"
     id="layer1">
    <g
       transform="matrix(0.35277777,0,0,-0.35277777,99.422919,159.46753)"
       id="g4625">
      <path
         id="path4627"
         style="fill:none;stroke:#7ad4ff;stroke-width:2;stroke-linecap:butt;stroke-linejoin:miter;stroke-miterlimit:10;stroke-dasharray:none;stroke-opacity:1"
         d="m 0,0 c -3.08,-1.641 -6.596,-2.57 -10.329,-2.57 -12.15,0 -22,9.849 -22,22 0,12.15 9.85,22 22,22 12.151,0 22,-9.85 22,-22 0,-5.131 -1.756,-9.851 -4.7,-13.593" />
    </g>
    <path
       id="path4631"
       style="fill:none;stroke:#7ad4ff;stroke-width:0.7055555;stroke-linecap:butt;stroke-linejoin:miter;stroke-miterlimit:10;stroke-dasharray:none;stroke-opacity:1"
       d="m 101.79659,145.6881 c 1.05339,-0.53481 2.24543,-0.83608 3.50767,-0.83608 4.28625,0 7.76111,3.47486 7.76111,7.76111 0,4.2866 -3.47486,7.76111 -7.76111,7.76111 -4.28661,0 -7.761115,-3.47451 -7.761115,-7.76111 0,-1.84926 0.646641,-3.54753 1.726494,-4.88068" />
  </g>
</svg>
