<?xml version="1.0" encoding="iso-8859-1"?>
<!-- Generator: Adobe Illustrator 17.1.0, SVG Export Plug-In . SVG Version: 6.00 Build 0)  -->
<!DOCTYPE svg PUBLIC "-//W3C//DTD SVG 1.1//EN" "http://www.w3.org/Graphics/SVG/1.1/DTD/svg11.dtd">
<svg version="1.1"
	 id="svg5314" xmlns:dc="http://purl.org/dc/elements/1.1/" xmlns:rdf="http://www.w3.org/1999/02/22-rdf-syntax-ns#" xmlns:svg="http://www.w3.org/2000/svg" xmlns:cc="http://creativecommons.org/ns#"
	 xmlns="http://www.w3.org/2000/svg" xmlns:xlink="http://www.w3.org/1999/xlink" x="0px" y="0px" viewBox="0 0 73.001 46"
	 style="enable-background:new 0 0 73.001 46;" xml:space="preserve">
<g id="layer1" transform="translate(-87.665189,-144.49917)">
	<g id="g4625" transform="matrix(0.35277777,0,0,-0.35277777,99.422919,159.46753)">
		<path id="path4627" style="fill:none;stroke:#7AD4FF;stroke-width:4;stroke-miterlimit:10;" d="M62.012-72.543
			c-7.89-4.204-16.898-6.584-26.461-6.584c-31.126,0-56.36,25.231-56.36,56.36c0,31.126,25.234,56.36,56.36,56.36
			c31.129,0,56.36-25.234,56.36-56.36c0-13.145-4.499-25.237-12.041-34.823"/>
	</g>
	<path id="path4631" style="fill:none;stroke:#7AD4FF;stroke-width:2;stroke-miterlimit:10;" d="M127.38,149.759
		c2.699-1.37,5.752-2.142,8.986-2.142c10.981,0,19.883,8.902,19.883,19.883c0,10.982-8.902,19.883-19.883,19.883
		c-10.982,0-19.883-8.901-19.883-19.883c0-4.737,1.657-9.088,4.423-12.503"/>
</g>
</svg>
