<?xml version="1.0" encoding="iso-8859-1"?>
<!-- Generator: Adobe Illustrator 17.1.0, SVG Export Plug-In . SVG Version: 6.00 Build 0)  -->
<!DOCTYPE svg PUBLIC "-//W3C//DTD SVG 1.1//EN" "http://www.w3.org/Graphics/SVG/1.1/DTD/svg11.dtd">
<svg version="1.1" id="Layer_1" xmlns="http://www.w3.org/2000/svg" xmlns:xlink="http://www.w3.org/1999/xlink" x="0px" y="0px"
	 viewBox="0 0 167.999 30.505" style="enable-background:new 0 0 167.999 30.505;" xml:space="preserve">
<path style="fill:#FFFFFF;" d="M9.614,21.104c1.663,2.739,3.84,4.008,7.691,4.008c3.655,0,6.52-1.31,7.207-3.056
	c0.625-1.586-0.603-2.775-3.835-3.689c-4.23-1.189-8.014-2.023-10.454-3.452c-2.704-1.587-3.526-3.807-2.464-6.505
	C9.774,3.292,17.009,0,26.538,0c6.919,0,11.517,3.806,13.584,7.177L31.255,8.41c-1.686-2.183-4.071-3.254-7.335-3.254
	s-5.724,1.112-6.333,2.659c-0.578,1.467,0.892,2.538,4.339,3.57c4.33,1.27,8.244,2.104,10.569,3.491
	c2.589,1.548,3.495,3.889,2.386,6.704c-2.077,5.277-10.04,8.925-19.96,8.925c-7.507,0-12.47-4.456-14.921-8.343L9.614,21.104z"/>
<polygon style="fill:#FFFFFF;" points="63.424,29.817 60.977,5.864 69.052,5.864 70.334,22.61 83.756,5.864 91.832,5.864 
	71.948,29.817 "/>
<path style="fill:#FFFFFF;" d="M115.471,7.47c2.616-1.441,6.044-2.228,9.933-2.228c7.378,0,11.01,2.752,9.676,7.374h-8.173
	c0.457-1.803-0.644-2.754-3.186-2.754c-3.987,0-4.796,1.671-5.988,4.949l-2.195,6.029c-1.179,3.244-1.6,4.947,2.387,4.947
	c2.94,0,4.604-1.146,5.511-3.636l0.334-0.917h-4.237l1.491-4.097h12.411l-4.723,12.976h-3.59l-0.442-1.932
	c-2.714,1.571-5.357,2.26-8.697,2.26c-3.689,0-6.533-0.819-8.062-2.228c-2.251-2.032-1.583-4.555-0.236-8.258l1.539-4.227
	C110.56,12.057,111.74,9.502,115.471,7.47"/>
<polygon style="fill:#FFFFFF;" points="139.567,5.864 164.631,5.864 162.952,10.485 145.961,10.485 144.397,14.778 155.662,14.778 
	153.982,19.398 142.717,19.398 140.605,25.198 157.659,25.198 155.978,29.817 130.848,29.817 "/>
<path style="fill:#FFFFFF;" d="M45.045,20.493l8.122-11.064l0.931,11.064H45.045z M61.463,29.789L58.895,5.835h-9.521L30.189,29.789
	l7.698,0.023l7.012-8.903l1.745,4.094h7.497l0.405,4.786H61.463z"/>
<path style="fill:#FFFFFF;" d="M89.123,20.468l8.122-11.064l0.93,11.064H89.123z M105.54,29.764L102.974,5.81h-9.522L74.267,29.764
	l7.698,0.023l7.012-8.904l1.744,4.097h7.498l0.405,4.784H105.54z"/>
<path style="fill:#FFFFFF;" d="M166.702,7.569h0.143c0.161,0,0.299-0.059,0.299-0.211c0-0.109-0.079-0.216-0.299-0.216
	c-0.064,0-0.108,0.005-0.143,0.01V7.569z M166.702,8.252h-0.196V7.02c0.103-0.016,0.201-0.03,0.349-0.03
	c0.185,0,0.308,0.039,0.382,0.093c0.074,0.055,0.113,0.138,0.113,0.255c0,0.163-0.108,0.261-0.24,0.3v0.01
	c0.108,0.019,0.181,0.118,0.206,0.299c0.029,0.192,0.059,0.264,0.077,0.305h-0.205c-0.029-0.041-0.059-0.152-0.084-0.314
	c-0.029-0.158-0.108-0.217-0.265-0.217h-0.137V8.252z M166.909,6.675c-0.487,0-0.885,0.418-0.885,0.934
	c0,0.525,0.398,0.938,0.889,0.938c0.491,0.004,0.884-0.413,0.884-0.934c0-0.52-0.393-0.938-0.884-0.938H166.909z M166.913,6.504
	c0.604,0,1.086,0.491,1.086,1.105c0,0.624-0.482,1.109-1.09,1.109c-0.604,0-1.095-0.485-1.095-1.109
	c0-0.614,0.491-1.105,1.095-1.105H166.913z"/>
<path style="fill:#F08B12;" d="M160.41,23.509l-1.884,6.308h-25.783h-1.791c0,0,5.296-0.35,14.361-2.308
	C152.055,26.054,160.41,23.509,160.41,23.509"/>
</svg>
