<?xml version="1.0" encoding="UTF-8" standalone="no"?>
<svg
   xmlns:dc="http://purl.org/dc/elements/1.1/"
   xmlns:cc="http://creativecommons.org/ns#"
   xmlns:rdf="http://www.w3.org/1999/02/22-rdf-syntax-ns#"
   xmlns:svg="http://www.w3.org/2000/svg"
   xmlns="http://www.w3.org/2000/svg"
   id="svg6514"
   version="1.1"
   viewBox="0 0 19.571053 18.697052"
   height="18.697052mm"
   width="19.571053mm">
  <defs
     id="defs6508" />
  <metadata
     id="metadata6511">
    <rdf:RDF>
      <cc:Work
         rdf:about="">
        <dc:format>image/svg+xml</dc:format>
        <dc:type
           rdf:resource="http://purl.org/dc/dcmitype/StillImage" />
        <dc:title></dc:title>
      </cc:Work>
    </rdf:RDF>
  </metadata>
  <g
     transform="translate(-102.09542,-125.87766)"
     id="layer1">
    <g
       transform="matrix(0.35277777,0,0,-0.35277777,102.09542,126.23044)"
       id="g4573">
      <path
         id="path4575"
         style="fill:none;stroke:#7ad4ff;stroke-width:2;stroke-linecap:butt;stroke-linejoin:miter;stroke-miterlimit:10;stroke-dasharray:none;stroke-opacity:1"
         d="m 0,0 h 19.705 c 0,0 3.477,-2.318 4.636,-4.636 1.159,-2.319 8.114,-15.069 8.114,-15.069 0,0 17.386,-1.159 19.704,-4.636 2.318,-3.477 2.318,-12.75 2.318,-12.75 v -6.955 h -6.954" />
    </g>
    <g
       transform="matrix(0.35277777,0,0,-0.35277777,110.27338,142.17762)"
       id="g4577">
      <path
         id="path4579"
         style="fill:none;stroke:#7ad4ff;stroke-width:2;stroke-linecap:butt;stroke-linejoin:miter;stroke-miterlimit:10;stroke-dasharray:none;stroke-opacity:1"
         d="M 0,0 H -9.272" />
    </g>
    <g
       transform="matrix(0.35277777,0,0,-0.35277777,109.86461,130.31946)"
       id="g4581">
      <path
         id="path4583"
         style="fill:none;stroke:#7ad4ff;stroke-width:2;stroke-linecap:butt;stroke-linejoin:miter;stroke-miterlimit:10;stroke-dasharray:none;stroke-opacity:1"
         d="M 0,0 H -6.955 V -8.114 H 3.477 Z" />
    </g>
    <g
       transform="matrix(0.35277777,0,0,-0.35277777,117.63366,141.76872)"
       id="g4585">
      <path
         id="path4587"
         style="fill:none;stroke:#7ad4ff;stroke-width:2;stroke-linecap:butt;stroke-linejoin:miter;stroke-miterlimit:10;stroke-dasharray:none;stroke-opacity:1"
         d="m 0,0 c 0,-3.841 -3.114,-6.954 -6.955,-6.954 -3.84,0 -6.954,3.113 -6.954,6.954 0,3.841 3.114,6.955 6.954,6.955 C -3.114,6.955 0,3.841 0,0 Z" />
    </g>
    <g
       transform="matrix(0.35277777,0,0,-0.35277777,109.86461,140.54201)"
       id="g4589">
      <path
         id="path4591"
         style="fill:none;stroke:#7ad4ff;stroke-width:2;stroke-linecap:butt;stroke-linejoin:miter;stroke-miterlimit:10;stroke-dasharray:none;stroke-opacity:1"
         d="M 0,0 H -18.546" />
    </g>
    <g
       transform="matrix(0.35277777,0,0,-0.35277777,110.68232,138.90639)"
       id="g4593">
      <path
         id="path4595"
         style="fill:none;stroke:#7ad4ff;stroke-width:2;stroke-linecap:butt;stroke-linejoin:miter;stroke-miterlimit:10;stroke-dasharray:none;stroke-opacity:1"
         d="M 0,0 H -9.272" />
    </g>
  </g>
</svg>
